<?xml version="1.0" encoding="UTF-8" standalone="no"?>
<svg
   xmlns:dc="http://purl.org/dc/elements/1.1/"
   xmlns:cc="http://creativecommons.org/ns#"
   xmlns:rdf="http://www.w3.org/1999/02/22-rdf-syntax-ns#"
   xmlns:svg="http://www.w3.org/2000/svg"
   xmlns="http://www.w3.org/2000/svg"
   xmlns:sodipodi="http://sodipodi.sourceforge.net/DTD/sodipodi-0.dtd"
   xmlns:inkscape="http://www.inkscape.org/namespaces/inkscape"
   inkscape:export-ydpi="96"
   inkscape:export-xdpi="96"
   inkscape:export-filename="C:\Users\Simon\Pictures\Otus.png"
   width="129mm"
   height="92mm"
   viewBox="0 0 129 92"
   version="1.1"
   id="svg8"
   inkscape:version="1.0 (4035a4fb49, 2020-05-01)"
   sodipodi:docname="Otus.svg">
  <defs
     id="defs2" />
  <sodipodi:namedview
     inkscape:object-nodes="false"
     id="base"
     pagecolor="#ffffff"
     bordercolor="#666666"
     borderopacity="1.0"
     inkscape:pageopacity="0.0"
     inkscape:pageshadow="2"
     inkscape:zoom="1.979899"
     inkscape:cx="373.0749"
     inkscape:cy="218.00367"
     inkscape:document-units="mm"
     inkscape:current-layer="layer1"
     inkscape:document-rotation="0"
     showgrid="false"
     inkscape:object-paths="false"
     inkscape:snap-intersection-paths="true"
     inkscape:snap-smooth-nodes="true"
     inkscape:window-width="2560"
     inkscape:window-height="1377"
     inkscape:window-x="-8"
     inkscape:window-y="-8"
     inkscape:window-maximized="1" />
  <metadata
     id="metadata5">
    <rdf:RDF>
      <cc:Work
         rdf:about="">
        <dc:format>image/svg+xml</dc:format>
        <dc:type
           rdf:resource="http://purl.org/dc/dcmitype/StillImage" />
        <dc:title></dc:title>
      </cc:Work>
    </rdf:RDF>
  </metadata>
  <g
     inkscape:label="Layer 1"
     inkscape:groupmode="layer"
     id="layer1">
    <path
       id="path74"
       d="m 36.254578,54.917136 h 3.320727 v 22.12733 h -3.320727 z"
       style="fill:#000000;stroke:none;stroke-width:0.264583" />
    <path
       id="path60"
       d="m 67.456296,82.216256 c 0.057,0.0628 0.11856,0.11974 0.17725,0.18035 l -0.17725,-0.22272 z"
       style="fill:#000000;stroke:none;stroke-width:0.264583" />
    <path
       sodipodi:nodetypes="ccccccccccccccccscccccssscssscccccccssssccsssscccccssscscssccscscccccsccccccccccccc"
       d="M 61.92402,8.7236073 53.184843,21.78966 46.962052,31.304299 42.030666,39.193809 37.098859,34.781236 24.205867,53.235487 12.36094,73.554722 32.275484,68.987559 c -0.0051,-0.76149 -0.0084,-1.528771 -0.01498,-2.286164 V 56.231232 55.001848 c 0.02992,-0.508672 0.09009,-0.918522 0.179835,-1.229381 0.209423,-0.763011 0.568338,-1.314008 1.076936,-1.65313 0.53852,-0.367379 1.136534,-0.607327 1.794725,-0.720368 0.516077,-0.105981 1.04064,-0.164584 1.573545,-0.175183 0.177636,-0.003 0.356381,-0.0013 0.535885,0.0057 h 2.019517 c 1.136859,0 2.094322,0.324649 2.872174,0.97462 0.777861,0.621717 1.166338,1.483756 1.166338,2.585886 l 5.3e-4,11.325408 9.01547,-2.578653 V 55.00186 h -3.50007 c -0.08975,0 -0.134874,-0.04232 -0.134874,-0.127122 v -3.433384 c 0,-0.08483 0.04512,-0.127122 0.134874,-0.127124 h 10.904763 c 0.08977,0 0.134874,0.04232 0.134874,0.127124 v 3.433384 c 0,0.08482 -0.04518,0.127125 -0.134874,0.127122 H 56.40011 V 62.42 l 3.42098,-0.978233 5.089094,10.506852 0.6165,-0.237196 v -7.934915 c 0.0299,-4.154202 0.04496,-8.322223 0.04496,-12.504663 0,-0.08483 0.04456,-0.127125 0.134361,-0.127125 h 3.679878 c 0.08977,0 0.134877,0.04232 0.134877,0.127125 v 18.904272 l 3.365685,-1.29346 V 51.271845 c 0,-0.08483 0.04507,-0.127125 0.134874,-0.127125 h 3.589962 c 0.08976,0 0.13436,0.04232 0.13436,0.127125 v 16.127179 l 6.533968,-2.511472 c -0.0644,-0.113335 -0.1225,-0.229299 -0.174152,-0.347785 -0.119679,-0.254338 -0.194373,-0.523033 -0.224274,-0.805635 V 62.88664 55.044224 c 0,-1.412989 0.419071,-2.416175 1.256771,-3.009636 0.837689,-0.59345 1.959554,-0.889868 3.365685,-0.889868 h 0.98702 c 0.359011,-0.0283 0.70339,-0.04237 1.03249,-0.04237 0.32909,0 0.65792,0.01408 0.987023,0.04237 0.35901,0 0.68836,0.05646 0.98754,0.169498 0.59835,0.226081 1.12169,0.564832 1.57045,1.016995 0.44877,0.452159 0.74803,0.98956 0.89762,1.61127 0.0598,0.254338 0.0899,0.564861 0.0899,0.932243 0.0299,0.339119 0.0444,0.706607 0.0444,1.102257 0,0.367371 -0.0145,0.734888 -0.0444,1.10226 v 0.889867 c 0,0.05653 -0.0151,0.09892 -0.045,0.127125 v 0.08475 l -0.13487,0.08475 h -3.41065 l -0.17931,-0.08475 c -0.0897,0 -0.134363,-0.04232 -0.134363,-0.127124 v -3.221508 l -0.045,-0.04238 h -3.321241 v 0.04238 8.308535 0.04238 H 87.71284 L 93.735732,60.868164 115.33854,65.474083 95.479902,40.357266 74.905028,17.38126 73.676832,20.701127 Z"
       inkscape:transform-center-y="-3.5015231"
       inkscape:transform-center-x="-2.9913177"
       style="fill:#000000;fill-rule:evenodd;stroke-width:0.288904"
       id="path26-6" />
    <path
       d="m 62.054544,10.82832 -7.843448,12.180651 -6.551536,9.448517 -5.345412,8.437213 -4.948017,-3.91914 -11.567769,16.571079 -9.162748,15.635739 15.624884,-3.583244 v -9.367903 -1.229384 c 0.02992,-0.508672 0.09008,-0.918522 0.179834,-1.229381 0.209423,-0.763011 0.568339,-1.314008 1.076937,-1.65313 0.538519,-0.367379 1.136533,-0.607327 1.794724,-0.720368 0.516078,-0.105981 1.040641,-0.164584 1.573546,-0.175183 0.177636,-0.003 0.35638,-0.0013 0.535884,0.0057 h 2.019517 c 1.136859,0 2.094323,0.324649 2.872174,0.97462 0.777862,0.621717 1.166339,1.483756 1.166339,2.585886 v 8.052739 l 9.015986,-2.578653 V 55.00186 h -3.500046 c -0.08975,0 -0.134874,-0.04232 -0.134874,-0.127122 v -3.433384 c 0,-0.08483 0.04512,-0.127122 0.134874,-0.127124 h 10.904763 c 0.08977,0 0.134874,0.04232 0.134874,0.127124 v 3.433384 c 0,0.08482 -0.04518,0.127125 -0.134874,0.127122 H 56.40011 v 4.145484 l 3.70055,-1.058334 4.660696,9.622668 0.765328,-0.294036 V 63.77652 c 0.0299,-4.154202 0.04496,-8.322223 0.04496,-12.504663 0,-0.08483 0.04456,-0.127125 0.134361,-0.127125 h 3.679878 c 0.08977,0 0.134877,0.04232 0.134877,0.127125 v 14.610476 l 3.365685,-1.293976 v -13.3165 c 0,-0.08483 0.04507,-0.127125 0.134874,-0.127125 h 3.589962 c 0.08976,0 0.13436,0.04232 0.13436,0.127125 v 11.832867 l 6.135542,-2.358511 v -5.701977 c 0,-1.412989 0.419071,-2.416175 1.256771,-3.009636 0.837689,-0.59345 1.959554,-0.889868 3.365685,-0.889868 h 0.98702 c 0.359011,-0.0283 0.70339,-0.04237 1.03249,-0.04237 0.32909,0 0.65792,0.01408 0.987023,0.04237 0.35901,0 0.68836,0.05646 0.98754,0.169498 0.59835,0.226081 1.12169,0.564832 1.57045,1.016995 0.44877,0.452159 0.74803,0.98956 0.89762,1.61127 0.0598,0.254338 0.0899,0.564861 0.0899,0.932243 0.0299,0.339119 0.0444,0.706607 0.0444,1.102257 0,0.367371 -0.0145,0.734888 -0.0444,1.10226 v 0.889867 c 0,0.05653 -0.0151,0.09892 -0.045,0.127125 v 0.07545 L 110.94459,61.781796 92.757582,38.779583 75.305933,19.452598 74.013504,22.73612 Z m 24.730792,43.961655 v 0.04238 4.413168 l 3.366203,-1.29398 v -3.119188 l -0.045,-0.04238 z"
       inkscape:transform-center-y="-3.2067658"
       inkscape:transform-center-x="-2.7395118"
       style="fill:#373e48;fill-rule:evenodd;stroke-width:0.264583"
       id="path26" />
    <path
       sodipodi:nodetypes="cccc"
       style="fill:#cccccc;stroke:none;stroke-width:0.264583px;stroke-linecap:butt;stroke-linejoin:miter;stroke-opacity:1"
       d="m 37.366131,36.975556 1.757661,9.18224 11.126675,0.89769 z"
       id="path42" />
    <path
       style="fill:#cccccc;stroke:none;stroke-width:0.264583px;stroke-linecap:butt;stroke-linejoin:miter;stroke-opacity:1"
       d="m 55.754746,25.558096 2.83482,11.52827 19.93825,12.7567 -13.41816,-16.34747 z"
       id="path44" />
    <path
       style="fill:#cccccc;stroke:none;stroke-width:0.264583px;stroke-linecap:butt;stroke-linejoin:miter;stroke-opacity:1"
       d="m 75.305926,19.452596 0.57605,10.26324 16.875606,9.06374 z"
       id="path46" />
    <path
       style="fill:#cccccc;stroke:none;stroke-width:0.264583px;stroke-linecap:butt;stroke-linejoin:miter;stroke-opacity:1"
       d="m 62.054546,10.828316 1.73219,13.69034 6.04762,6.80358 4.17915,-8.58612 z"
       id="path48" />
    <text
       xml:space="preserve"
       style="font-style:normal;font-weight:normal;font-size:10.5833px;line-height:1.25;font-family:sans-serif;fill:#000000;fill-opacity:1;stroke:none;stroke-width:0.264583"
       x="70.587051"
       y="171.97917"
       id="text67"><tspan
         sodipodi:role="line"
         id="tspan65"
         x="70.587051"
         y="171.97917"
         style="stroke-width:0.264583" /></text>
    <g
       aria-label="OTUS"
       transform="matrix(1.0289143,0,0,0.97189824,-15.530633,64.860001)"
       id="g45"
       style="font-style:normal;font-weight:normal;font-size:43.6154px;line-height:1.25;font-family:sans-serif;fill:#ffffff;fill-opacity:1;stroke:none;stroke-width:1.09039" />
    <g
       style="font-style:normal;font-weight:normal;font-size:43.6154px;line-height:1.25;font-family:sans-serif;fill:#000000;fill-opacity:1;stroke:none;stroke-width:1.09039"
       id="text26"
       transform="matrix(1.0289143,0,0,0.97189824,-45.353425,-94.921654)"
       aria-label="OTUS">
      <path
         id="path28"
         style="font-style:normal;font-variant:normal;font-weight:normal;font-stretch:normal;font-family:'Kuchen Hollow';-inkscape-font-specification:'Kuchen Hollow';stroke-width:1.09039"
         d="m 82.542477,176.93887 h -3.22754 v -22.76724 h 3.22754 z m 3.79454,-22.89809 q 0,-1.701 -1.134001,-2.66054 -1.134,-1.00315 -2.791385,-1.00315 -0.915924,0 -1.962693,0 -1.04677,-0.0436 -2.049924,0.17446 -0.959539,0.17446 -1.744616,0.74146 -0.741462,0.52339 -1.046769,1.701 -0.130847,0.47977 -0.174462,1.26485 0,0.78508 0,1.26485 0,5.45192 0,10.773 0.04362,5.32108 0.04362,10.773 0,1.26485 0.828693,2.26801 0.828692,1.00315 2.049924,1.30846 0.305307,0.0872 0.785077,0.13084 0.523385,0 1.046769,0 0.523385,0 1.04677,0 0.523385,-0.0436 0.872308,-0.0436 1.526539,0 2.704155,-0.74146 1.221231,-0.74147 1.482923,-2.35524 v 0.0436 q 0.08723,-0.47977 0.04362,-0.95954 0,-0.47977 0,-0.95954 z m -1.919078,30.48717 q -1.04677,0 -2.006308,0 -0.915924,0.0436 -1.788232,-0.13085 -0.828692,-0.13084 -1.613769,-0.567 -0.785078,-0.39254 -1.526539,-1.26485 -0.348924,-0.43615 -0.741462,-0.82869 -0.348923,-0.39254 -0.697846,-0.82869 -0.130847,-0.17446 -0.305308,-0.30531 -0.174462,-0.13084 -0.305308,-0.30531 -1.264847,-1.39569 -1.264847,-3.22754 0,-5.27746 -0.04361,-10.46769 0,-5.23385 0,-10.51131 0,-0.30531 0,-0.78508 0,-0.47977 0,-0.95954 0.04361,-0.47977 0.08723,-0.91592 0.04362,-0.47977 0.130846,-0.78508 0.479769,-1.39569 1.701001,-2.39885 1.264846,-1.00315 2.74777,-1.134 0.436154,-0.0436 0.872308,-0.0436 0.436154,0 0.872308,0 0.785077,0 1.613769,0 0.872308,-0.0436 1.657385,0.13084 0.828693,0.17447 1.570155,0.69785 0.741462,0.47977 1.221231,1.17762 0.130846,0.17446 0.218077,0.39254 0.130846,0.17446 0.261692,0.34892 0.523385,0.61061 0.959539,1.134 0.479769,0.47977 0.828693,1.04677 0.392538,0.52338 0.610615,1.17761 0.218077,0.61062 0.218077,1.43931 v 21.72047 q 0,0.47977 0,1.04677 0.04362,0.52339 -0.04362,1.00315 -0.218077,1.65739 -1.439308,2.74777 -1.221231,1.13401 -2.878617,1.30847 l -0.04362,-0.0436 q -0.218077,0.0436 -0.436154,0.0872 -0.218077,0.0436 -0.436154,0.0436 z" />
      <path
         id="path30"
         style="font-style:normal;font-variant:normal;font-weight:normal;font-stretch:normal;font-family:'Kuchen Hollow';-inkscape-font-specification:'Kuchen Hollow';stroke-width:1.09039"
         d="m 102.42701,150.59517 q 0,-0.13085 -0.13085,-0.13085 H 91.697622 q -0.130846,0 -0.130846,0.13085 v 3.53284 q 0,0.13085 0.130846,0.13085 h 3.402001 v 26.43093 q 0,0.13085 0.130847,0.13085 h 3.532847 q 0.130846,0 0.130846,-0.13085 v -26.43093 h 3.401997 q 0.13085,0 0.13085,-0.13085 z m -8.635848,7.41462 q -0.610616,0 -0.959539,-0.39254 l -1.831847,-2.13716 q -0.436154,-0.21807 -0.610616,-0.567 -0.130846,-0.34892 -0.130846,-0.78508 v -3.53284 q 0,-1.43931 1.439308,-1.43931 h 10.598538 q 0.47977,0 0.87231,0.21808 0.39254,0.21807 0.52339,0.69784 l 1.83184,2.18077 q 0.17447,0.21808 0.21808,0.47977 0.0436,0.21808 0.0436,0.43616 v 3.53284 q 0,1.30847 -1.30847,1.30847 h -2.22438 v 25.25331 q 0,1.30846 -1.30846,1.30846 h -3.53285 q -0.697847,0 -1.04677,-0.39254 l -1.831847,-2.18077 q -0.479769,-0.17446 -0.610615,-0.52338 -0.130846,-0.34892 -0.130846,-0.78508 z" />
      <path
         id="path32"
         style="font-style:normal;font-variant:normal;font-weight:normal;font-stretch:normal;font-family:'Kuchen Hollow';-inkscape-font-specification:'Kuchen Hollow';stroke-width:1.09039"
         d="m 118.66829,150.42071 q 0,-0.13085 -0.13084,-0.13085 h -3.48923 q -0.13085,0 -0.13085,0.13085 v 26.43093 h -3.27115 v -26.43093 q 0,-0.13085 -0.13085,-0.13085 h -3.57646 q -0.13085,0 -0.13085,0.13085 0,6.45507 -0.0436,12.86654 0,6.36785 0,12.82293 0,0.47977 0,1.00315 0.0436,0.52338 0.21808,0.95954 0.47977,1.26485 1.52654,1.91908 1.04677,0.65423 2.35523,0.65423 h 3.18393 q 1.04677,0 1.87546,-0.567 0.87231,-0.567 1.35208,-1.48293 0.3053,-0.52338 0.34892,-1.22123 0.0436,-0.69784 0.0436,-1.30846 z m -4.92854,34.02001 q -1.26484,0 -2.31161,-0.65423 -1.00316,-0.61062 -1.78823,-1.52654 l -1.48293,-1.701 q -0.52338,-0.61062 -0.8723,-1.04677 -0.30531,-0.47977 -0.52339,-0.95954 -0.17446,-0.47977 -0.26169,-1.04677 -0.0436,-0.567 -0.0436,-1.39569 0,-6.45508 0,-12.82293 0.0436,-6.41147 0.0436,-12.86654 0,-1.43931 1.43931,-1.43931 h 3.57646 q 0.47977,0 0.87231,0.26169 0.39254,0.21808 0.52338,0.69785 l 0.69785,0.82869 q 0,-0.82869 0.21808,-1.30846 0.26169,-0.47977 1.22123,-0.47977 h 3.48923 q 0.47977,0 0.87231,0.21807 0.39253,0.21808 0.52338,0.69785 l 1.83185,2.18077 q 0.17446,0.21808 0.21807,0.47977 0.0436,0.21808 0.0436,0.43615 0,6.4987 0,12.91016 0.0436,6.36785 0.0436,12.86654 0,0.69785 -0.13085,1.52654 -0.0872,0.8287 -0.43615,1.43931 l -0.0436,-0.0436 q -0.61062,1.134 -1.35208,1.701 -0.74146,0.567 -1.61377,0.78507 -0.8723,0.21808 -1.91907,0.21808 -1.00316,0 -2.13716,0 -0.17446,0 -0.34892,0 -0.17446,0.0436 -0.34893,0.0436 z m -4.09984,-2.22439 v 0.0436 l 0.26169,0.3053 z" />
      <path
         sodipodi:nodetypes="ccsccsscscsssccccccsccccccsssscssssssscccsccccccscccccsccccccccccssscccscccccccccsccsscccscssccccscssccccscccssssccssccccccc"
         id="path34"
         style="font-style:normal;font-variant:normal;font-weight:normal;font-stretch:normal;font-family:'Kuchen Hollow';-inkscape-font-specification:'Kuchen Hollow';stroke-width:1.09039"
         d="m 135.49157,157.31194 v -0.91592 c 0.0291,-0.378 0.0436,-0.756 0.0436,-1.134 0,-0.40708 -0.0145,-0.78508 -0.0436,-1.13401 0,-0.378 -0.0291,-0.69784 -0.0872,-0.95953 -0.14539,-0.63969 -0.43616,-1.19216 -0.87231,-1.65739 -0.43615,-0.46523 -0.945,-0.81416 -1.52654,-1.04677 -0.29077,-0.11631 -0.61061,-0.17446 -0.95954,-0.17446 -0.31985,-0.0291 -0.63969,-0.0436 -0.95954,-0.0436 -0.31985,0 -0.65423,0.0145 -1.00315,0.0436 h -0.95954 c -1.36661,0 -2.457,0.30531 -3.27115,0.91592 -0.81416,0.61062 -1.22124,1.64285 -1.22124,3.0967 v 8.06885 0.8723 c 0.0291,0.29077 0.10176,0.56701 0.21808,0.8287 0.20354,0.49431 0.50885,0.945 0.91593,1.35207 0.43615,0.40708 0.90138,0.69785 1.39569,0.87231 0.23261,0.0872 0.55246,0.14539 0.95954,0.17446 0.43615,0.0291 0.79961,0.0436 1.09038,0.0436 h 1.30846 c 0.43615,-0.0291 0.87231,-0.0436 1.30847,-0.0436 l -0.13085,0.0436 V 176.808 h -3.27116 v -7.76354 c -0.0872,-0.14539 -0.15992,-0.21808 -0.21807,-0.21808 h -3.44562 c -0.0872,0 -0.13085,0.0436 -0.13085,0.13085 v 7.98162 c 0,1.01769 0.33439,1.89 1.00316,2.61692 0.69785,0.69785 1.55562,1.04677 2.57331,1.04677 h 2.66054 c 0.69785,0 1.323,-0.0436 1.87546,-0.13084 0.55246,-0.0872 1.09038,-0.39254 1.61377,-0.91593 0.52339,-0.52339 0.84323,-1.04677 0.95954,-1.57015 0.11631,-0.52339 0.17446,-1.134 0.17446,-1.83185 v -8.94116 c 0,-0.40707 -0.0291,-0.84323 -0.0872,-1.30846 -0.0291,-0.49431 -0.13084,-0.91592 -0.30531,-1.26484 -0.31985,-0.61062 -0.78508,-1.09039 -1.39569,-1.43931 -0.58154,-0.34893 -1.22123,-0.52339 -1.91908,-0.52339 h -3.35839 v -0.0436 -8.54862 -0.0436 h 3.22754 l 0.0436,0.0436 v 3.31477 c 0,0.0872 0.0436,0.13085 0.13085,0.13085 l 0.17446,0.0872 h 3.31477 l 0.13084,-0.0872 v -0.0872 c 0.0291,-0.0291 0.0436,-0.0727 0.0436,-0.13085 z m -4.40516,-8.37416 c 0.40708,0 0.79962,0.0145 1.17762,0.0436 0.40708,0.0291 0.79962,0.1163 1.17762,0.26169 0.95953,0.34893 1.75915,0.95954 2.39884,1.83185 0.0872,0.11631 0.15993,0.24715 0.21808,0.39254 0.0581,0.11631 0.13083,0.21807 0.21808,0.3053 l 1.48292,1.74462 c 0.52339,0.55246 0.85777,1.22123 1.00315,2.00631 h -0.0436 c 0.0872,0.40707 0.13084,0.81415 0.13084,1.22123 v 1.22123 c 0,0.40708 0.0145,0.8287 0.0436,1.26485 0.0291,0.43615 -0.0146,0.85777 -0.13085,1.26484 l -0.0436,-0.0436 c -0.0872,0.20354 -0.2617,0.40708 -0.52339,0.61061 -0.23261,0.20354 -0.46523,0.30531 -0.69784,0.30531 h -3.31477 l -0.26375,-10e-4 c -0.46524,0 -0.72487,-0.21679 -0.95748,-0.47848 l -1.17762,-1.39569 v 1.87546 c 0.95954,0 1.83185,0.24715 2.61692,0.74146 0.81416,0.46523 1.43932,1.11947 1.87547,1.9627 0,0.0291 0.0582,0.13083 0.17446,0.3053 0.14538,0.14539 0.3053,0.31985 0.47977,0.52339 0.17446,0.17446 0.33438,0.34892 0.47977,0.52338 0.14538,0.17447 0.24715,0.29078 0.3053,0.34893 0.49431,0.58153 0.79962,1.22122 0.91593,1.91907 0.14538,0.66877 0.21807,1.36662 0.21807,2.09354 v 8.94116 c 0,0.46523 -0.0145,0.88685 -0.0436,1.26485 -0.0291,0.34892 -0.10176,0.6833 -0.21808,1.00315 -0.0872,0.34893 -0.23261,0.66877 -0.43615,0.95954 -0.17446,0.31985 -0.43615,0.65423 -0.78508,1.00315 -0.66877,0.66877 -1.33754,1.06131 -2.00631,1.17762 -0.63969,0.14539 -1.41023,0.21808 -2.31161,0.21808 h -2.66054 c -1.59923,0 -2.84954,-0.61062 -3.75093,-1.83185 l 0.0436,0.0872 c -0.23261,-0.26169 -0.45069,-0.52339 -0.65423,-0.78508 -0.17446,-0.26169 -0.378,-0.50885 -0.61062,-0.74146 -0.0872,-0.11631 -0.20353,-0.21808 -0.34892,-0.30531 -0.14539,-0.0872 -0.27623,-0.18899 -0.39254,-0.3053 -0.90139,-0.98862 -1.35208,-2.16624 -1.35208,-3.53285 v -7.98162 c 0,-0.43615 0.0727,-0.756 0.21808,-0.95954 0.17446,-0.20354 0.378,-0.33439 0.61062,-0.39254 0.26169,-0.0872 0.53792,-0.11629 0.82869,-0.0872 h 0.95954 c -0.0872,-0.11631 -0.17447,-0.21808 -0.2617,-0.30531 -0.0872,-0.0872 -0.17446,-0.18899 -0.26169,-0.3053 -0.0581,-0.0581 -0.14536,-0.11629 -0.26169,-0.17446 -0.0872,-0.0872 -0.15993,-0.17447 -0.21808,-0.2617 -0.58154,-0.49431 -1.01769,-1.11946 -1.30846,-1.87546 -0.14539,-0.378 -0.23262,-0.74146 -0.26169,-1.09038 -0.0291,-0.34893 -0.0436,-0.72693 -0.0436,-1.134 v -8.06885 c 0,-0.81415 0.11631,-1.52654 0.34893,-2.13716 0.23261,-0.63969 0.65423,-1.25031 1.26484,-1.83184 0.66877,-0.61062 1.32301,-0.98862 1.9627,-1.13401 0.63969,-0.14538 1.38115,-0.21807 2.22438,-0.21807 h 0.95954 c 0.34892,-0.0291 0.6833,-0.0436 1.00315,-0.0436 z m 6.41147,4.2307 0.26169,0.3053 -0.26169,-0.26169 z" />
    </g>
  </g>
</svg>
